mtllib materials.mtl
v 0.03565593 0.05594122 0.06155431
v 0.06196812 0.06037295 0.03335428
v 0.07660402 -0.1405879 0.02493817
v 0.07075545 0.06247914 -0.004402339
v 0.08018194 -0.1411537 -0.005481184
v 0.05966337 0.06169522 -0.04159862
v 0.07565945 -0.1402017 -0.03731734
v 0.03166398 0.05823147 -0.06826794
v 0.05091731 -0.1476085 -0.05385143
v -0.005740277 0.05301583 -0.07726419
v 0.02313512 -0.148295 -0.06166649
v -0.042527 0.04744601 -0.06617689
v -0.06883918 0.04301429 -0.0379768
v -0.01238395 -0.1569396 -0.04944706
v -0.07762651 0.04090822 -0.0002201796
v -0.03429294 -0.1542282 -0.002738893
v -0.06653441 0.04169214 0.0369761
v -0.02502732 -0.1541567 0.02844334
v -0.03853506 0.04515588 0.06364536
v 0.0004817825 -0.1518357 0.05058676
v -0.00113076 0.05037153 0.07264167
v 0.02520064 -0.1513217 0.04942685
v 0.0575132 -0.1457916 0.04690844
v -0.02936605 -0.1534565 -0.03199232
v 0.01517344 0.007466555 0.06174016
v 0.04778797 0.01348829 0.0460909
v 0.04019157 -0.1438473 0.04626578
v 0.06486346 0.01697862 0.01265931
v 0.05907877 -0.1427918 0.03800458
v 0.0662051 0.01842237 -0.01562506
v 0.07274491 -0.140148 0.0172348
v 0.05132757 0.01728392 -0.04693913
v 0.07743596 -0.1375488 -0.01450926
v 0.0256926 0.01322424 -0.06662512
v 0.06720573 -0.1398091 -0.03975296
v -0.0107123 0.007253289 -0.06769449
v 0.04291962 -0.1434817 -0.05442643
v -0.04305482 0.001451075 -0.05088943
v -0.0112759 -0.14885 -0.04825145
v -0.05982699 -0.003933966 -0.01792926
v -0.02975575 -0.1503122 -0.0225879
v -0.06056558 -0.003384531 0.01171643
v -0.02808056 -0.1524933 0.008938134
v -0.04260569 -0.001202822 0.03945416
v -0.01741465 -0.1519338 0.02786547
v -0.01359419 0.003401816 0.06145525
v 0.007607295 -0.1539147 0.04378617
v 0.01682266 -0.1434413 -0.05822659
v 0.02279662 0.06233072 0.07224751
v 0.05399039 0.06612778 0.05007374
v 0.05641085 0.04627478 0.05007911
v 0.02521708 0.04247773 0.07225287
v 0.06997325 0.06806684 0.01484764
v 0.0723937 0.04821384 0.014853
v 0.06646258 0.06762838 -0.02399206
v 0.06888303 0.04777539 -0.0239867
v 0.04439908 0.06492972 -0.0560382
v 0.04681954 0.04507673 -0.05603284
v 0.009694653 0.0606941 -0.07270414
v 0.01211511 0.0408411 -0.07269877
v -0.0283517 0.05605638 -0.06952417
v -0.02593124 0.03620338 -0.0695188
v -0.05954547 0.05225933 -0.04735041
v -0.05712501 0.03240633 -0.04734504
v -0.07552831 0.05032027 -0.0121243
v -0.07310785 0.03046727 -0.01211894
v -0.07201765 0.05075872 0.0267154
v -0.06959718 0.03090572 0.02672076
v -0.04995416 0.05345738 0.05876154
v -0.0475337 0.03360438 0.0587669
v -0.0152497 0.057693 0.07542747
v -0.01282924 0.03784001 0.07543284
v -0.02292888 0.1965871 0.01865822
v -0.0191006 0.197301 0.015248
v 0.01933355 -0.06394225 0.003698885
v 0.01550526 -0.06465626 0.007109046
v -0.01748612 0.1977551 0.01035088
v 0.02094802 -0.06348825 -0.001198292
v -0.01851806 0.1978275 0.005278885
v 0.01991608 -0.06341583 -0.00627023
v -0.0219199 0.1974989 0.001391172
v 0.01651424 -0.06374443 -0.010158
v -0.02678013 0.1968573 -0.0002706051
v 0.01165402 -0.06438601 -0.01181972
v -0.03179644 0.1960747 0.0007388592
v 0.006637697 -0.06516862 -0.01081032
v -0.03562474 0.1953608 0.00414902
v 0.002809408 -0.06588262 -0.007400095
v -0.03723921 0.1949067 0.009046197
v 0.001194935 -0.06633663 -0.002502978
v -0.03620727 0.1948344 0.01411813
v 0.002226873 -0.06640905 0.00256902
v -0.03280543 0.1951629 0.01800585
v 0.005628715 -0.06608045 0.006456733
v -0.0279452 0.1958045 0.01966763
v 0.01048895 -0.06543887 0.00811851
vn 0.729019 0.02444631 0.6840568
vn 0.9724926 0.04380616 0.2287778
vn 0.9555695 0.06963507 -0.2864224
vn 0.6887485 0.0136542 -0.7248716
vn 0.239035 -0.04088144 -0.9701501
vn -0.2710112 -0.1129389 -0.9559277
vn -0.708919 -0.1607635 -0.6867233
vn -0.950049 -0.2079719 -0.2327114
vn -0.9355757 -0.2106292 0.2834317
vn -0.666669 -0.1799902 0.7232953
vn -0.2131892 -0.1391396 0.9670525
vn 0.2935767 -0.03753939 0.9551982
vn -0.1432237 0.989449 0.02185781
vn 0.1609218 -0.9825855 -0.09289705
vn -0.7231582 -0.165714 -0.670508
vn -0.9654973 -0.199092 -0.1678616
vn -0.296396 -0.1212564 -0.9473364
vn 0.3651087 -0.7784726 0.5105643
vn -0.9367346 -0.2116179 0.2788299
vn -0.6374745 -0.1678643 0.7519627
vn 0.04797182 -0.05660602 0.9972435
vn 0.2244768 -0.9734625 0.04450784
vn 0.1344131 -0.9897285 -0.04868814
vn 0.2670364 -0.9631596 0.03186425
vn 0.03251537 -0.9990839 -0.02782381
vn 0.08174199 -0.9962413 -0.02866171
vn 0.06258893 -0.9979146 -0.0157815
vn 0.11902 -0.9923402 -0.03309361
vn 0.02220235 -0.9992926 0.03035503
vn 0.09457904 -0.1016375 0.9903154
vn 0.7504891 0.03339466 0.6600387
vn 0.9910434 0.06734808 0.1153134
vn 0.9891809 0.04652783 -0.139127
vn 0.5500613 0.02588025 -0.8347231
vn 0.2715098 -0.04194672 -0.9615211
vn 0.4355192 -0.02002718 0.8999565
vn 0.888114 0.04047407 0.4578379
vn 0.9974244 0.05148484 0.0499396
vn 0.9006428 0.06177443 -0.4301471
vn 0.6063886 0.02493373 -0.7947774
vn 0.04124965 -0.07303548 -0.996476
vn -0.4428087 -0.1092449 -0.8899359
vn -0.8682101 -0.1634503 -0.4685031
vn -0.9769565 -0.2124608 -0.0204022
vn -0.8194004 -0.1788149 0.5446175
vn -0.5786736 -0.1676317 0.7981456
vn 0.005818242 -0.1108374 0.9938216
vn -0.1635381 0.9862006 0.02576108
vn 0.2037099 -0.9785497 -0.03070641
vn 0.1439503 -0.03583061 -0.988936
vn -0.3123224 -0.1163041 -0.9428298
vn 0.05111585 -0.931195 -0.3609197
vn -0.7937019 -0.1780256 -0.5816735
vn 0.1003145 -0.9948342 0.01555238
vn -0.9785966 -0.2022478 0.03800694
vn 0.0619467 -0.9954673 -0.0721626
vn -0.8520542 -0.1946832 0.4859032
vn 0.1014379 -0.9944543 -0.02776871
vn -0.5390711 -0.1537602 0.8281064
vn -0.009362688 -0.9940023 -0.1089582
vn 0.5181718 -0.009610583 -0.8552225
vn 0.9217427 0.07576697 -0.3803285
vn 0.127478 -0.9911479 0.03708381
vn 0.9858139 0.07206889 0.151582
vn 0.8305939 0.05779105 0.5538717
vn 0.08845108 -0.9937364 -0.06829511
vn 0.4015336 -0.01836886 0.91566
vn 0.01435211 -0.9954339 -0.09436762
vn -0.04205081 -0.1085244 0.993204
vn 0.2888615 -0.9541772 0.07813399
vn -0.3517376 0.9357346 -0.02610531
vn -0.190854 0.9805186 0.04645291
vn -0.1718976 0.9847174 0.02797887
vn 0.3390748 0.04159351 0.9398395
vn 0.7601186 0.09284658 0.6431168
vn 0.9774894 0.1192215 0.1740714
vn 0.9329425 0.1136511 -0.3416163
vn 0.6384145 0.07762796 -0.7657681
vn 0.172824 0.02080451 -0.984733
vn -0.3390749 -0.04159352 -0.9398395
vn -0.7601188 -0.0928466 -0.6431166
vn -0.9774894 -0.1192215 -0.1740713
vn -0.9329425 -0.1136511 0.3416162
vn -0.6384146 -0.07762797 0.765768
vn -0.1728236 -0.02080447 0.984733
vn -0.1210228 0.9926497 -0.0002681408
vn 0.1210228 -0.9926497 0.0002681408
vn 0.4433781 0.0256205 0.8959684
vn 0.826207 0.0970182 0.5549499
vn 0.9876544 0.1424199 0.06523304
vn 0.8844606 0.1496604 -0.441963
vn 0.5442762 0.1167994 -0.8307354
vn 0.05825365 0.05264219 -0.9969129
vn -0.4433782 -0.02562052 -0.8959684
vn -0.8262072 -0.09701823 -0.5549498
vn -0.9876544 -0.1424199 -0.06523299
vn -0.8844606 -0.1496604 0.441963
vn -0.5442764 -0.1167995 0.8307353
vn -0.05825331 -0.05264214 0.996913
vn -0.1454143 0.9884055 0.0436958
vn 0.1454143 -0.9884055 -0.0436958
usemtl mat24
f 3//1 2//1 1//1
f 5//2 4//2 2//2
f 7//3 6//3 4//3
f 9//4 8//4 6//4
f 11//5 10//5 8//5
f 11//6 12//6 10//6
f 14//7 13//7 12//7
f 16//8 15//8 13//8
f 18//9 17//9 15//9
f 20//10 19//10 17//10
f 22//11 21//11 19//11
f 23//12 1//12 21//12
f 1//13 2//13 4//13 6//13 8//13 10//13 12//13 13//13 15//13 17//13 19//13 21//13
f 3//14 23//14 22//14
f 14//15 24//15 13//15
f 13//16 24//16 16//16
f 11//17 14//17 12//17
f 24//18 14//18 11//18
f 15//19 16//19 18//19
f 17//20 18//20 20//20
f 19//21 20//21 22//21
f 5//22 3//22 22//22
f 7//23 5//23 22//23
f 9//24 7//24 22//24
f 11//25 9//25 22//25
f 24//26 11//26 22//26
f 16//27 24//27 22//27
f 20//28 18//28 16//28
f 22//29 20//29 16//29
f 21//30 22//30 23//30
f 1//31 23//31 3//31
f 2//32 3//32 5//32
f 4//33 5//33 7//33
f 6//34 7//34 9//34
f 8//35 9//35 11//35
f 52//74 51//74 50//74 49//74
f 51//75 54//75 53//75 50//75
f 54//76 56//76 55//76 53//76
f 56//77 58//77 57//77 55//77
f 58//78 60//78 59//78 57//78
f 60//79 62//79 61//79 59//79
f 62//80 64//80 63//80 61//80
f 64//81 66//81 65//81 63//81
f 66//82 68//82 67//82 65//82
f 68//83 70//83 69//83 67//83
f 70//84 72//84 71//84 69//84
f 72//85 52//85 49//85 71//85
f 49//86 50//86 53//86 55//86 57//86 59//86 61//86 63//86 65//86 67//86 69//86 71//86
f 72//87 70//87 68//87 66//87 64//87 62//87 60//87 58//87 56//87 54//87 51//87 52//87
f 76//88 75//88 74//88 73//88
f 75//89 78//89 77//89 74//89
f 78//90 80//90 79//90 77//90
f 80//91 82//91 81//91 79//91
f 82//92 84//92 83//92 81//92
f 84//93 86//93 85//93 83//93
f 86//94 88//94 87//94 85//94
f 88//95 90//95 89//95 87//95
f 90//96 92//96 91//96 89//96
f 92//97 94//97 93//97 91//97
f 94//98 96//98 95//98 93//98
f 96//99 76//99 73//99 95//99
f 73//100 74//100 77//100 79//100 81//100 83//100 85//100 87//100 89//100 91//100 93//100 95//100
f 96//101 94//101 92//101 90//101 88//101 86//101 84//101 82//101 80//101 78//101 75//101 76//101
usemtl mat14
f 27//36 26//36 25//36
f 29//37 28//37 26//37
f 31//38 30//38 28//38
f 33//39 32//39 30//39
f 35//40 34//40 32//40
f 37//41 36//41 34//41
f 39//42 38//42 36//42
f 41//43 40//43 38//43
f 43//44 42//44 40//44
f 45//45 44//45 42//45
f 47//46 46//46 44//46
f 47//47 25//47 46//47
f 25//48 26//48 28//48 30//48 32//48 34//48 36//48 38//48 46//48
f 47//49 37//49 33//49
f 37//50 48//50 36//50
f 36//51 48//51 39//51
f 39//52 48//52 37//52
f 38//53 39//53 41//53
f 41//54 39//54 37//54
f 40//55 41//55 43//55
f 43//56 41//56 37//56
f 42//57 43//57 45//57
f 45//58 43//58 37//58
f 44//59 45//59 47//59
f 47//60 45//60 37//60
f 35//61 37//61 34//61
f 33//62 35//62 32//62
f 37//63 35//63 33//63
f 31//64 33//64 30//64
f 29//65 31//65 28//65
f 33//66 31//66 29//66
f 27//67 29//67 26//67
f 33//68 29//68 27//68
f 47//69 27//69 25//69
f 33//70 27//70 47//70
f 38//71 40//71 42//71
f 42//72 44//72 46//72
f 38//73 42//73 46//73
